<?xml version="1.0" standalone="no"?>
<!DOCTYPE svg PUBLIC "-//W3C//DTD SVG 20010904//EN"
 "http://www.w3.org/TR/2001/REC-SVG-20010904/DTD/svg10.dtd">
<svg version="1.0" xmlns="http://www.w3.org/2000/svg"
 width="20.000000pt" height="20.000000pt" viewBox="0 0 333.000000 349.000000"
 preserveAspectRatio="xMidYMid meet">

<g transform="translate(0.000000,349.000000) scale(0.100000,-0.100000)"
fill="#000000" stroke="none">
<path d="M1661 3115 c-62 -18 -109 -45 -164 -93 -116 -106 -213 -313 -222
-477 -3 -51 -2 -69 3 -50 16 58 51 97 53 58 0 -14 2 -14 9 3 5 12 18 28 29 36
12 8 18 18 13 23 -4 5 -2 5 5 2 16 -10 44 3 36 16 -4 6 -1 7 6 2 9 -5 11 -23
7 -59 -5 -50 -5 -50 5 -11 5 22 8 48 5 57 -2 9 -1 18 3 20 3 2 22 37 43 79 52
108 121 187 199 229 53 28 77 34 144 38 44 2 85 9 91 14 8 6 22 -1 43 -19 38
-35 91 -67 91 -55 0 5 -25 36 -55 70 -97 107 -225 150 -344 117z"/>
<path d="M1624 2791 c-17 -4 -35 -11 -41 -14 -12 -7 -87 -177 -81 -183 3 -2
33 12 69 30 107 58 209 78 352 73 67 -3 134 -8 150 -12 15 -4 27 -3 27 2 0 14
-102 62 -177 84 -74 21 -250 33 -299 20z m-49 -147 c-37 -28 -55 -36 -55 -23
0 16 27 35 53 36 22 2 22 2 2 -13z"/>
<path d="M1192 2566 c-52 -60 -95 -128 -125 -201 -25 -60 -30 -87 -35 -185 -4
-105 -2 -122 21 -189 55 -156 157 -278 295 -349 89 -47 115 -53 87 -22 -10 11
-22 17 -27 14 -14 -9 -102 52 -159 111 -68 70 -103 128 -134 219 -38 114 -31
285 14 345 17 22 17 22 14 -16 l-4 -38 34 53 c18 29 36 50 39 47 3 -3 8 50 11
117 3 68 4 124 3 126 -2 1 -17 -13 -34 -32z"/>
<path d="M1845 2540 c-68 -14 -137 -44 -207 -90 -64 -42 -102 -83 -61 -65 47
21 154 44 203 44 49 1 118 -8 190 -24 14 -3 7 2 -15 10 -61 24 -198 30 -275
12 -36 -9 -66 -14 -68 -12 -8 8 51 38 120 62 88 31 217 41 301 24 112 -24 259
-118 297 -192 l13 -24 -27 24 c-37 34 -42 20 -12 -32 32 -54 32 -60 4 -52 -23
7 -23 7 -3 -8 18 -14 19 -17 4 -32 -14 -15 -20 -14 -68 4 -64 26 -64 26 -56 0
6 -19 4 -21 -16 -16 -77 17 -85 15 -24 -6 90 -31 165 -68 242 -123 l61 -44 4
-64 3 -63 -50 42 c-64 53 -165 122 -165 111 0 -2 17 -15 37 -28 21 -12 68 -49
105 -81 61 -52 68 -62 68 -95 l-1 -37 -24 28 c-13 15 -28 27 -33 27 -5 0 -12
-44 -14 -97 -7 -148 -71 -303 -173 -418 -81 -92 27 -30 134 76 72 72 128 153
155 224 17 44 17 50 3 81 -16 32 -15 34 3 44 23 12 33 -1 76 -95 24 -53 28
-72 27 -156 0 -91 1 -96 20 -91 18 4 19 2 13 -24 -14 -55 -54 -93 -142 -136
-115 -55 -115 -73 1 -43 180 47 275 166 275 344 0 156 -82 317 -232 456 -35
33 -88 74 -116 90 -53 31 -58 41 -30 59 15 9 37 -2 114 -59 26 -19 26 5 0 71
-69 173 -214 312 -375 360 -63 19 -225 27 -286 14z m570 -760 c-2 -8 -8 -26
-14 -40 -8 -21 -10 -16 -10 34 -1 54 0 58 13 41 8 -11 13 -26 11 -35z"/>
<path d="M1322 2490 c0 -19 2 -27 5 -17 2 9 2 25 0 35 -3 9 -5 1 -5 -18z"/>
<path d="M1422 2480 c0 -19 2 -27 5 -17 2 9 2 25 0 35 -3 9 -5 1 -5 -18z"/>
<path d="M1775 2466 l-50 -12 110 -6 c101 -5 145 -15 236 -52 14 -6 16 -2 10
26 -5 26 -14 35 -41 45 -45 15 -200 15 -265 -1z"/>
<path d="M2001 2396 c10 -9 109 -56 109 -51 0 5 -95 55 -106 55 -4 0 -5 -2 -3
-4z"/>
<path d="M1273 2345 c0 -27 2 -38 4 -22 2 15 2 37 0 50 -2 12 -4 0 -4 -28z"/>
<path d="M1322 2330 c0 -14 2 -19 5 -12 2 6 2 18 0 25 -3 6 -5 1 -5 -13z"/>
<path d="M2120 2337 c0 -3 21 -22 47 -43 26 -21 44 -33 40 -27 -9 14 -87 77
-87 70z"/>
<path d="M1221 2294 c0 -11 3 -14 6 -6 3 7 2 16 -1 19 -3 4 -6 -2 -5 -13z"/>
<path d="M1422 2285 c0 -16 2 -22 5 -12 2 9 2 23 0 30 -3 6 -5 -1 -5 -18z"/>
<path d="M1868 2193 c7 -3 16 -2 19 1 4 3 -2 6 -13 5 -11 0 -14 -3 -6 -6z"/>
<path d="M2018 2193 c6 -2 18 -2 25 0 6 3 1 5 -13 5 -14 0 -19 -2 -12 -5z"/>
<path d="M1743 2165 c-18 -8 -33 -18 -33 -22 0 -4 57 -8 127 -8 92 0 114 2 82
8 -24 4 -76 6 -116 5 -76 -3 -81 0 -30 19 18 6 25 12 17 12 -8 0 -30 -6 -47
-14z"/>
<path d="M1978 2123 c6 -2 18 -2 25 0 6 3 1 5 -13 5 -14 0 -19 -2 -12 -5z"/>
<path d="M2065 2100 c27 -12 43 -12 25 0 -8 5 -22 9 -30 9 -10 0 -8 -3 5 -9z"/>
<path d="M2120 2080 c8 -5 20 -10 25 -10 6 0 3 5 -5 10 -8 5 -19 10 -25 10 -5
0 -3 -5 5 -10z"/>
<path d="M2160 2066 c0 -5 60 -36 69 -36 3 0 -7 9 -24 20 -29 19 -45 25 -45
16z"/>
<path d="M1158 2035 c-10 -13 -18 -36 -18 -50 0 -37 64 -156 111 -208 l39 -42
-30 55 c-35 66 -60 135 -74 212 l-11 56 -17 -23z"/>
<path d="M1410 2030 c6 -11 13 -20 16 -20 2 0 0 9 -6 20 -6 11 -13 20 -16 20
-2 0 0 -9 6 -20z"/>
<path d="M1211 1994 c0 -11 3 -14 6 -6 3 7 2 16 -1 19 -3 4 -6 -2 -5 -13z"/>
<path d="M1521 1898 c26 -27 53 -48 59 -48 19 0 6 23 -14 26 -11 1 -35 18 -55
36 -20 18 -16 12 10 -14z"/>
<path d="M910 1881 c0 -116 56 -285 131 -391 49 -70 68 -76 174 -59 71 11 88
20 65 34 -5 3 -10 1 -10 -4 0 -18 -20 -12 -52 14 -16 14 -25 25 -18 25 6 0
-27 37 -72 83 -90 88 -145 174 -179 274 -24 72 -39 81 -39 24z"/>
<path d="M1540 1916 c0 -2 8 -10 18 -17 15 -13 16 -12 3 4 -13 16 -21 21 -21
13z"/>
<path d="M2176 1884 c-10 -26 -7 -46 5 -38 19 11 1 -131 -27 -216 -59 -178
-210 -319 -373 -350 -69 -13 -109 -12 -61 2 63 18 57 28 -16 28 -63 0 -78 -4
-159 -46 -50 -25 -94 -48 -99 -51 -20 -13 28 -23 130 -29 92 -5 122 -2 188 15
268 71 436 297 436 588 0 95 -10 134 -24 97z"/>
<path d="M1887 1883 c-2 -5 -1 -19 4 -33 7 -23 7 -23 8 8 1 31 -3 40 -12 25z"/>
<path d="M2161 1814 c0 -11 3 -14 6 -6 3 7 2 16 -1 19 -3 4 -6 -2 -5 -13z"/>
<path d="M1881 1804 c0 -11 3 -14 6 -6 3 7 2 16 -1 19 -3 4 -6 -2 -5 -13z"/>
<path d="M695 1698 c-46 -152 -24 -271 70 -364 64 -65 128 -98 231 -119 233
-49 547 61 742 258 49 49 53 56 41 75 -12 20 -16 18 -80 -43 -71 -66 -181
-137 -253 -161 -39 -14 -46 -13 -88 5 -26 11 -49 16 -53 13 -4 -4 -2 4 5 17
11 22 11 23 -6 17 -37 -15 -222 -19 -286 -6 -110 21 -198 82 -243 169 -13 25
-24 38 -25 29 0 -10 -4 -18 -9 -18 -13 0 -17 52 -11 123 7 75 -13 77 -35 5z"/>
<path d="M2105 1634 c-22 -36 -71 -95 -108 -129 l-68 -63 32 -7 c26 -6 36 -2
66 26 34 34 128 209 121 229 -1 5 -21 -20 -43 -56z"/>
<path d="M775 876 c-5 -3 -26 -7 -45 -10 -19 -4 -46 -16 -60 -27 -24 -19 -23
-19 19 1 37 19 58 21 138 18 85 -3 97 -5 114 -27 15 -18 19 -20 19 -7 0 10
-15 23 -34 31 -35 15 -132 28 -151 21z"/>
<path d="M1235 871 c-33 -8 -75 -29 -75 -37 0 -2 13 2 30 11 39 20 184 20 224
0 16 -9 31 -13 33 -11 3 3 -9 12 -26 21 -36 18 -142 28 -186 16z"/>
<path d="M1622 823 l1 -48 4 43 4 42 107 0 c111 -1 166 -13 205 -47 21 -18 21
-18 7 1 -32 41 -88 56 -212 56 l-118 0 2 -47z"/>
<path d="M626 795 c-9 -26 -7 -32 5 -12 6 10 9 21 6 23 -2 3 -7 -2 -11 -11z"/>
<path d="M788 793 c12 -2 32 -2 45 0 12 2 2 4 -23 4 -25 0 -35 -2 -22 -4z"/>
<path d="M930 785 c-9 -11 -17 -12 -30 -5 -10 6 -25 10 -32 10 -7 0 0 -7 16
-15 28 -15 31 -14 50 5 11 11 18 20 14 20 -3 0 -11 -7 -18 -15z"/>
<path d="M1278 793 c12 -2 32 -2 45 0 12 2 2 4 -23 4 -25 0 -35 -2 -22 -4z"/>
<path d="M1374 775 c27 -14 31 -14 45 2 14 14 14 15 1 6 -10 -8 -21 -9 -30 -3
-8 6 -22 10 -30 10 -8 0 -2 -7 14 -15z"/>
<path d="M1828 783 c7 -3 16 -2 19 1 4 3 -2 6 -13 5 -11 0 -14 -3 -6 -6z"/>
<path d="M611 744 c0 -11 3 -14 6 -6 3 7 2 16 -1 19 -3 4 -6 -2 -5 -13z"/>
<path d="M2194 745 c-17 -13 -16 -14 14 -4 50 17 137 6 175 -21 20 -15 27 -17
18 -6 -8 9 -27 24 -42 32 -37 19 -139 18 -165 -1z"/>
<path d="M2540 750 c0 -5 16 -9 36 -8 21 1 40 -5 46 -13 8 -11 9 -10 4 4 -3
10 -6 21 -6 23 0 2 -18 4 -40 4 -22 0 -40 -4 -40 -10z"/>
<path d="M2750 741 c-5 -11 -10 -26 -9 -33 0 -7 4 -3 9 8 9 22 50 36 70 24 6
-4 8 -15 4 -26 -5 -16 -4 -16 5 -4 6 8 11 23 11 33 0 26 -75 24 -90 -2z"/>
<path d="M1981 734 c0 -11 3 -14 6 -6 3 7 2 16 -1 19 -3 4 -6 -2 -5 -13z"/>
<path d="M603 660 c0 -30 2 -43 4 -27 2 15 2 39 0 55 -2 15 -4 2 -4 -28z"/>
<path d="M2630 705 c0 -5 5 -17 10 -25 5 -8 10 -10 10 -5 0 6 -5 17 -10 25 -5
8 -10 11 -10 5z"/>
<path d="M1348 693 c29 -2 74 -2 100 0 26 2 2 3 -53 3 -55 0 -76 -1 -47 -3z"/>
<path d="M1623 640 c0 -30 2 -43 4 -27 2 15 2 39 0 55 -2 15 -4 2 -4 -28z"/>
<path d="M1323 623 c15 -2 39 -2 55 0 15 2 2 4 -28 4 -30 0 -43 -2 -27 -4z"/>
<path d="M1481 594 c0 -11 3 -14 6 -6 3 7 2 16 -1 19 -3 4 -6 -2 -5 -13z"/>
<path d="M611 574 c0 -11 3 -14 6 -6 3 7 2 16 -1 19 -3 4 -6 -2 -5 -13z"/>
<path d="M2360 570 l-55 -7 58 -1 c32 -1 57 2 57 8 0 6 -1 9 -2 8 -2 -1 -28
-4 -58 -8z"/>
<path d="M910 559 c0 -5 4 -8 9 -5 5 3 20 -4 35 -15 14 -11 26 -17 26 -12 0 8
-52 43 -64 43 -3 0 -6 -5 -6 -11z"/>
<path d="M620 543 c0 -24 60 -80 98 -91 82 -25 221 -4 245 36 4 5 -12 0 -34
-11 -30 -14 -60 -20 -118 -20 -91 0 -144 21 -172 67 -10 17 -19 26 -19 19z"/>
<path d="M2341 547 c2 -1 13 -9 24 -17 19 -14 19 -14 6 3 -7 9 -18 17 -24 17
-6 0 -8 -1 -6 -3z"/>
<path d="M2740 495 c-12 -36 -13 -37 -56 -33 -24 2 -44 0 -44 -4 0 -5 22 -8
48 -8 47 0 49 1 60 37 15 48 8 55 -8 8z"/>
<path d="M1932 500 c-36 -30 -87 -40 -199 -40 l-102 0 -4 28 c-4 25 -4 25 -6
-5 l-1 -33 120 0 c125 0 175 13 209 54 18 21 11 20 -17 -4z"/>
<path d="M1421 484 c-51 -36 -176 -37 -244 -2 -22 11 -36 14 -32 8 16 -25 90
-50 153 -50 69 0 117 16 146 49 24 26 20 26 -23 -5z"/>
<path d="M2159 486 c28 -34 71 -48 133 -44 48 4 64 9 86 32 l27 29 -32 -23
c-45 -33 -151 -32 -196 1 -21 15 -27 17 -18 5z"/>
</g>
</svg>
